<svg width="16" height="16" viewBox="0 0 16 16" fill="none" xmlns="http://www.w3.org/2000/svg">
<path d="M8 0C12.4184 0 16 3.28376 16 7.33474C16 11.3857 12.4184 14.6695 8 14.6695C3.5816 14.6695 0 11.3857 0 7.33474C0 3.28376 3.5816 0 8 0ZM8 1.46695C6.30261 1.46695 4.67475 2.08516 3.47452 3.18558C2.27428 4.28601 1.6 5.7785 1.6 7.33474C1.6 8.89097 2.27428 10.3835 3.47452 11.4839C4.67475 12.5843 6.30261 13.2025 8 13.2025C9.69739 13.2025 11.3253 12.5843 12.5255 11.4839C13.7257 10.3835 14.4 8.89097 14.4 7.33474C14.4 5.7785 13.7257 4.28601 12.5255 3.18558C11.3253 2.08516 9.69739 1.46695 8 1.46695ZM7.992 5.86779C8.4384 5.86779 8.8 6.19932 8.8 6.6086V10.3669C8.9525 10.4477 9.07169 10.5723 9.13908 10.7214C9.20646 10.8706 9.21828 11.036 9.17271 11.1919C9.12713 11.3479 9.02669 11.4857 8.88699 11.584C8.74728 11.6823 8.5761 11.7356 8.4 11.7356H8.008C7.90189 11.7356 7.79682 11.7164 7.69879 11.6792C7.60076 11.642 7.51169 11.5874 7.43666 11.5186C7.36163 11.4498 7.30211 11.3681 7.26151 11.2783C7.2209 11.1884 7.2 11.0921 7.2 10.9948V7.33474C6.98783 7.33474 6.78434 7.25746 6.63431 7.11991C6.48429 6.98236 6.4 6.79579 6.4 6.60127C6.4 6.40674 6.48429 6.22017 6.63431 6.08262C6.78434 5.94507 6.98783 5.86779 7.2 5.86779H7.992ZM8 3.66737C8.21217 3.66737 8.41566 3.74465 8.56569 3.8822C8.71571 4.01975 8.8 4.20631 8.8 4.40084C8.8 4.59537 8.71571 4.78193 8.56569 4.91949C8.41566 5.05704 8.21217 5.13432 8 5.13432C7.78783 5.13432 7.58434 5.05704 7.43431 4.91949C7.28429 4.78193 7.2 4.59537 7.2 4.40084C7.2 4.20631 7.28429 4.01975 7.43431 3.8822C7.58434 3.74465 7.78783 3.66737 8 3.66737Z" fill="#E0AC07"/>
</svg>
