<svg width="24" height="24" viewBox="0 0 26 28" fill="none" xmlns="http://www.w3.org/2000/svg">
<path d="M19.9333 23.4737L22.3333 25.3684V26H3.66667V25.3684L6.06667 23.4737H3.66667C2.95942 23.4737 2.28115 23.2075 1.78105 22.7337C1.28095 22.26 1 21.6174 1 20.9474V7.05263C1 5.71259 1.5619 4.42743 2.5621 3.47988C3.56229 2.53233 4.91885 2 6.33333 2H19.6667C21.0812 2 22.4377 2.53233 23.4379 3.47988C24.4381 4.42743 25 5.71259 25 7.05263V20.9474C25 21.6174 24.719 22.26 24.219 22.7337C23.7189 23.2075 23.0406 23.4737 22.3333 23.4737H19.9333ZM11.6667 13.3684V4.52632H6.33333C5.62609 4.52632 4.94781 4.79248 4.44772 5.26626C3.94762 5.74003 3.66667 6.38261 3.66667 7.05263V13.3684H11.6667ZM14.3333 13.3684H22.3333V7.05263C22.3333 6.38261 22.0524 5.74003 21.5523 5.26626C21.0522 4.79248 20.3739 4.52632 19.6667 4.52632H14.3333V13.3684ZM7 20.9474C7.53043 20.9474 8.03914 20.7477 8.41421 20.3924C8.78929 20.0371 9 19.5551 9 19.0526C9 18.5501 8.78929 18.0682 8.41421 17.7128C8.03914 17.3575 7.53043 17.1579 7 17.1579C6.46957 17.1579 5.96086 17.3575 5.58579 17.7128C5.21071 18.0682 5 18.5501 5 19.0526C5 19.5551 5.21071 20.0371 5.58579 20.3924C5.96086 20.7477 6.46957 20.9474 7 20.9474ZM19 20.9474C19.5304 20.9474 20.0391 20.7477 20.4142 20.3924C20.7893 20.0371 21 19.5551 21 19.0526C21 18.5501 20.7893 18.0682 20.4142 17.7128C20.0391 17.3575 19.5304 17.1579 19 17.1579C18.4696 17.1579 17.9609 17.3575 17.5858 17.7128C17.2107 18.0682 17 18.5501 17 19.0526C17 19.5551 17.2107 20.0371 17.5858 20.3924C17.9609 20.7477 18.4696 20.9474 19 20.9474Z" fill="#42B6F0"/>
</svg>
