<svg width="25" height="24" viewBox="0 0 25 24" fill="none" xmlns="http://www.w3.org/2000/svg">
<path d="M14.1082 4.062C13.7602 3.407 13.0822 3 12.3402 3C11.5982 3 10.9202 3.407 10.5722 4.063L3.23417 17.926C3.07172 18.2305 2.99128 18.5721 3.00075 18.9171C3.01022 19.2622 3.10926 19.5988 3.28817 19.894C3.46456 20.1907 3.71544 20.436 4.01592 20.6058C4.31639 20.7756 4.65604 20.8639 5.00117 20.862H19.6792C20.3872 20.862 21.0282 20.5 21.3932 19.894C21.5721 19.5988 21.6711 19.2622 21.6806 18.9171C21.6901 18.5721 21.6096 18.2305 21.4472 17.926L14.1082 4.062ZM5.00117 18.862L12.3402 4.999L19.6842 18.862H5.00117Z" fill="#FB4141"/>
<path d="M11.3133 9.9425H13.3701V14.9138H11.3133V9.9425ZM11.3123 15.908H13.369V17.8965H11.3123V15.908Z" fill="#FB4141"/>
</svg>
