<svg width="29" height="29" viewBox="0 0 29 29" fill="none" xmlns="http://www.w3.org/2000/svg">
<path d="M14.5 23.2512C14.8062 23.2512 15.1017 23.3636 15.3306 23.5671C15.5594 23.7705 15.7056 24.0509 15.7414 24.355L15.7501 24.5012V25.7513C15.7498 26.0699 15.6278 26.3764 15.409 26.6081C15.1903 26.8398 14.8914 26.9792 14.5733 26.9978C14.2552 27.0165 13.942 26.913 13.6976 26.7085C13.4533 26.504 13.2962 26.214 13.2586 25.8976L13.2499 25.7513V24.5012C13.2499 24.1697 13.3816 23.8517 13.616 23.6173C13.8505 23.3829 14.1684 23.2512 14.5 23.2512ZM22.3921 20.6385L22.5096 20.7423L23.3847 21.6173C23.6089 21.8423 23.7391 22.1442 23.7488 22.4616C23.7585 22.7791 23.647 23.0883 23.4369 23.3265C23.2269 23.5647 22.934 23.7141 22.6178 23.7442C22.3016 23.7743 21.9858 23.683 21.7346 23.4887L21.617 23.3849L20.7419 22.5099C20.5262 22.2945 20.3966 22.0078 20.3775 21.7036C20.3584 21.3994 20.451 21.0987 20.6381 20.858C20.8252 20.6174 21.0937 20.4533 21.3933 20.3968C21.6928 20.3403 22.0027 20.3951 22.2646 20.551L22.3921 20.6385ZM8.25806 20.7423C8.4733 20.9575 8.60261 21.2439 8.62171 21.5477C8.64081 21.8515 8.54841 22.1519 8.36182 22.3924L8.25806 22.5099L7.38296 23.3849C7.15799 23.6091 6.85611 23.7393 6.53864 23.749C6.22117 23.7587 5.91191 23.6472 5.67367 23.4371C5.43544 23.2271 5.2861 22.9342 5.25598 22.618C5.22586 22.3019 5.31722 21.9861 5.5115 21.7348L5.61527 21.6173L6.49036 20.7423C6.7248 20.5079 7.04272 20.3763 7.37421 20.3763C7.7057 20.3763 8.02362 20.5079 8.25806 20.7423ZM4.49889 13.2506C4.81753 13.251 5.124 13.373 5.3557 13.5917C5.58739 13.8104 5.72682 14.1094 5.74549 14.4274C5.76417 14.7455 5.66068 15.0587 5.45617 15.303C5.25166 15.5474 4.96156 15.7044 4.64516 15.742L4.49889 15.7508H3.24875C2.93012 15.7504 2.62364 15.6284 2.39195 15.4097C2.16025 15.191 2.02082 14.892 2.00215 14.574C1.98348 14.2559 2.08697 13.9427 2.29148 13.6984C2.49599 13.454 2.78608 13.297 3.10249 13.2594L3.24875 13.2506H4.49889ZM25.7512 13.2506C26.0699 13.251 26.3764 13.373 26.6081 13.5917C26.8397 13.8104 26.9792 14.1094 26.9978 14.4274C27.0165 14.7455 26.913 15.0587 26.7085 15.303C26.504 15.5474 26.2139 15.7044 25.8975 15.742L25.7512 15.7508H24.5011C24.1825 15.7504 23.876 15.6284 23.6443 15.4097C23.4126 15.191 23.2732 14.892 23.2545 14.574C23.2358 14.2559 23.3393 13.9427 23.5438 13.6984C23.7483 13.454 24.0384 13.297 24.3548 13.2594L24.5011 13.2506H25.7512ZM7.26545 5.51269L7.38296 5.61645L8.25806 6.4915C8.48227 6.71646 8.61244 7.01832 8.62213 7.33578C8.63183 7.65323 8.52032 7.96247 8.31025 8.20069C8.10019 8.43891 7.80732 8.58825 7.49113 8.61837C7.17494 8.64848 6.85914 8.55713 6.60788 8.36285L6.49036 8.2591L5.61527 7.38405C5.40035 7.16864 5.27139 6.88224 5.25256 6.57854C5.23372 6.27485 5.32631 5.97471 5.51296 5.7344C5.69961 5.49409 5.9675 5.33009 6.26642 5.27317C6.56534 5.21625 6.87477 5.2703 7.13668 5.42519L7.26545 5.51269ZM23.3847 5.61645C23.6 5.8317 23.7293 6.11809 23.7484 6.42189C23.7675 6.72569 23.6751 7.02602 23.4885 7.26654L23.3847 7.38405L22.5096 8.2591C22.2847 8.48329 21.9828 8.61346 21.6653 8.62315C21.3478 8.63285 21.0386 8.52134 20.8003 8.31129C20.5621 8.10124 20.4128 7.80838 20.3827 7.49221C20.3525 7.17604 20.4439 6.86026 20.6382 6.609L20.7419 6.4915L21.617 5.61645C21.8515 5.3821 22.1694 5.25045 22.5009 5.25045C22.8324 5.25045 23.1503 5.3821 23.3847 5.61645ZM14.5 2C14.8062 2.00004 15.1017 2.11245 15.3306 2.31591C15.5594 2.51937 15.7056 2.79973 15.7414 3.10381L15.7501 3.25007V4.50014C15.7498 4.81876 15.6278 5.12521 15.409 5.3569C15.1903 5.58858 14.8914 5.728 14.5733 5.74667C14.2552 5.76534 13.942 5.66186 13.6976 5.45736C13.4533 5.25286 13.2962 4.96278 13.2586 4.6464L13.2499 4.50014V3.25007C13.2499 2.91853 13.3816 2.60057 13.616 2.36614C13.8505 2.1317 14.1684 2 14.5 2ZM14.5 8.25035C15.7247 8.25028 16.9225 8.60998 17.9445 9.28478C18.9666 9.95958 19.7679 10.9197 20.2488 12.046C20.7298 13.1723 20.8693 14.415 20.65 15.6199C20.4307 16.8248 19.8623 17.9387 19.0153 18.8233C18.1683 19.7078 17.0801 20.3241 15.8858 20.5956C14.6915 20.867 13.4438 20.7817 12.2977 20.3501C11.1515 19.9185 10.1574 19.1598 9.43876 18.1681C8.72015 17.1764 8.30871 15.9955 8.25556 14.772L8.24931 14.5007L8.25556 14.2294C8.32547 12.6203 9.0139 11.1002 10.1773 9.98627C11.3407 8.87231 12.8892 8.25044 14.5 8.25035Z" fill="#13A4EC"/>
</svg>
